<?xml version="1.0" encoding="UTF-8" standalone="no"?>
<svg
   xmlns:dc="http://purl.org/dc/elements/1.1/"
   xmlns:cc="http://creativecommons.org/ns#"
   xmlns:rdf="http://www.w3.org/1999/02/22-rdf-syntax-ns#"
   xmlns:svg="http://www.w3.org/2000/svg"
   xmlns="http://www.w3.org/2000/svg"
   xmlns:sodipodi="http://sodipodi.sourceforge.net/DTD/sodipodi-0.dtd"
   xmlns:inkscape="http://www.inkscape.org/namespaces/inkscape"
   inkscape:version="1.0 (4035a4fb49, 2020-05-01)"
   sodipodi:docname="arrow.svg"
   xml:space="preserve"
   style="enable-background:new 0 0 511.999 511.999;"
   viewBox="0 0 511.999 511.999"
   y="0px"
   x="0px"
   id="Layer_1"
   version="1.1"><metadata
   id="metadata49"><rdf:RDF><cc:Work
       rdf:about=""><dc:format>image/svg+xml</dc:format><dc:type
         rdf:resource="http://purl.org/dc/dcmitype/StillImage" /></cc:Work></rdf:RDF></metadata><defs
   id="defs47" /><sodipodi:namedview
   inkscape:current-layer="Layer_1"
   inkscape:window-maximized="1"
   inkscape:window-y="348"
   inkscape:window-x="-8"
   inkscape:cy="255.9995"
   inkscape:cx="255.9995"
   inkscape:zoom="1.4355497"
   showgrid="false"
   id="namedview45"
   inkscape:window-height="1137"
   inkscape:window-width="1920"
   inkscape:pageshadow="2"
   inkscape:pageopacity="0"
   guidetolerance="10"
   gridtolerance="10"
   objecttolerance="10"
   borderopacity="1"
   bordercolor="#666666"
   pagecolor="#ffffff" />
<g
   transform="matrix(-0.56121052,0.56121052,-0.56121052,-0.56121052,543.33991,230.34261)"
   id="g6">
	<g
   id="g4">
		<path
   id="path2"
   d="m 481.6,2.244 -98.358,48.531 c -6.201,3.061 -10.501,8.971 -11.5,15.814 l -7.521,51.461 -204.339,204.338 -84.31,2.526 c -11.606,0.348 -20.732,10.038 -20.384,21.643 0.348,11.605 10.045,20.726 21.643,20.384 l 70.336,-2.108 -2.107,70.336 c -0.348,11.605 8.779,21.295 20.384,21.643 0.214,0.007 0.427,0.01 0.642,0.01 11.319,0 20.662,-9.004 21.003,-20.394 l 2.526,-84.311 204.336,-204.335 51.461,-7.524 c 6.841,-0.999 12.754,-5.299 15.813,-11.5 L 509.756,30.399 C 518.617,12.442 499.573,-6.621 481.6,2.244 Z m -53.195,98.008 -19.506,2.851 2.851,-19.506 32.878,-16.222 z" />
	</g>
</g>
<g
   transform="matrix(-0.56121052,0.56121052,-0.56121052,-0.56121052,543.33839,230.34261)"
   id="g12">
	<g
   id="g10">
		<path
   id="path8"
   d="m 113.043,377.314 -92.649,2.775 c -11.606,0.347 -20.732,10.038 -20.384,21.643 0.348,11.606 10.044,20.729 21.643,20.384 l 70.336,-2.108 -2.107,70.338 c -0.355,11.828 9.128,21.653 21.025,21.653 11.319,0 20.662,-9.004 21.003,-20.394 l 2.775,-92.648 c 0.37,-12.267 -9.784,-22.059 -21.642,-21.643 z" />
	</g>
</g>
<g
   id="g14">
</g>
<g
   id="g16">
</g>
<g
   id="g18">
</g>
<g
   id="g20">
</g>
<g
   id="g22">
</g>
<g
   id="g24">
</g>
<g
   id="g26">
</g>
<g
   id="g28">
</g>
<g
   id="g30">
</g>
<g
   id="g32">
</g>
<g
   id="g34">
</g>
<g
   id="g36">
</g>
<g
   id="g38">
</g>
<g
   id="g40">
</g>
<g
   id="g42">
</g>
</svg>
